/* XPM */
static char *d38738f920434026e33d3790d1a0e4282Y4BzuOhr2vOuYTr[] = {
/* columns rows colors chars-per-pixel */
"32 32 255 2 ",
"   c #9E3E25",
".  c #9E3D25",
"X  c #A03F26",
"o  c #9F3F26",
"O  c #9F3E25",
"+  c #AF583B",
"@  c #B15C3F",
"#  c #B05A3D",
"$  c #B05A3E",
"%  c #B15B3F",
"&  c #B25C40",
"*  c #AC5337",
"=  c #9C3C24",
"-  c #9D3D25",
";  c #9F3E26",
":  c #9D3E25",
">  c #9E3E26",
",  c #AB5337",
"<  c #AF593D",
"1  c #AE573B",
"2  c #AE563A",
"3  c #B25D40",
"4  c #AB5135",
"5  c #9D3C24",
"6  c #AD5438",
"7  c #B05B3F",
"8  c #B15C40",
"9  c #B05B3E",
"0  c #B15D40",
"q  c #AD563A",
"w  c #AA5035",
"e  c #9C3C23",
"r  c #AC5338",
"t  c #9E3D24",
"y  c #AB5338",
"u  c #9D3D24",
"i  c #AE583B",
"p  c #B35F42",
"a  c #AC5438",
"s  c #9D3E26",
"d  c #9E3F26",
"f  c #B25E41",
"g  c #9F3E24",
"h  c #AF563A",
"j  c #B1593E",
"k  c #AF573B",
"l  c #AB5136",
"z  c #9B3A22",
"x  c #9B3B23",
"c  c #AD5439",
"v  c #B25B3F",
"b  c #B15A3E",
"n  c #B0593D",
"m  c #B15B3E",
"M  c #AD5539",
"N  c #9C3B23",
"B  c #A95035",
"V  c #A84E33",
"C  c #A94F34",
"Z  c #AA5136",
"A  c #AA5034",
"S  c #B97953",
"D  c #BD845C",
"F  c #BC8159",
"G  c #BD825A",
"H  c #BB7F58",
"J  c #BD835B",
"K  c #754938",
"L  c #6F4434",
"P  c #6E422D",
"I  c #724737",
"U  c #7C5648",
"Y  c #BE845C",
"T  c #BE855C",
"R  c #A84F34",
"E  c #AF5A3E",
"W  c #AF5A3D",
"Q  c #B05C3F",
"!  c #AE583C",
"~  c #BF8D61",
"^  c #C59C6C",
"/  c #C3996A",
"(  c #663A2A",
")  c #955A39",
"_  c #C37540",
"`  c #BA6D3A",
"'  c #BB6A36",
"]  c #BC703D",
"[  c #C49464",
"{  c #BF8453",
"}  c #C1703A",
"|  c #A6663C",
" . c #5F392D",
".. c #714738",
"X. c #C59B6C",
"o. c #C69E6F",
"O. c #C19064",
"+. c #AF593C",
"@. c #BE885E",
"#. c #C39769",
"$. c #C29467",
"%. c #9D613D",
"&. c #AC6639",
"*. c #C8783F",
"=. c #F79447",
"-. c #F49F56",
";. c #FCBD78",
":. c #F6994E",
">. c #F2954B",
",. c #FCBA73",
"<. c #F6AA62",
"1. c #D98443",
"2. c #795546",
"3. c #C49869",
"4. c #C08D62",
"5. c #8D5839",
"6. c #FA9A4C",
"7. c #F0A25C",
"8. c #EEA462",
"9. c #EC9953",
"0. c #F5C385",
"q. c #EA924B",
"w. c #E58A44",
"e. c #EC9E5B",
"r. c #F0A561",
"t. c #9F5E39",
"y. c #C08C61",
"u. c #AE593C",
"i. c #AF583C",
"p. c #BD875D",
"a. c #8D5334",
"s. c #F0B06F",
"d. c #E98C45",
"f. c #E98F49",
"g. c #F1AE6D",
"h. c #F5BE7E",
"j. c #7A4A33",
"k. c #F9CC8D",
"l. c #AE593D",
"z. c #AA5237",
"x. c #7B452E",
"c. c #EFA966",
"v. c #EEA25D",
"b. c #AA5236",
"n. c #AB5237",
"m. c #784730",
"M. c #D7793E",
"N. c #E48548",
"B. c #E68E4B",
"V. c #EA8343",
"C. c #743D2B",
"Z. c #813F29",
"A. c #CC6C39",
"S. c #E68242",
"D. c #E07F41",
"F. c #91492D",
"G. c #793D2C",
"H. c #815D40",
"J. c #81A34E",
"K. c #6E9645",
"L. c #855C34",
"P. c #90422B",
"I. c #8D492E",
"U. c #8E462E",
"Y. c #5F843D",
"T. c #6C9945",
"R. c #7E6E41",
"E. c #7A5132",
"W. c #509B4A",
"Q. c #5DB24D",
"!. c #728E42",
"~. c #5F7B3C",
"^. c #536C39",
"/. c #596B39",
"(. c #5A733A",
"). c #628C40",
"_. c #61833D",
"`. c #5F893F",
"'. c #57783B",
"]. c #54733A",
"[. c #56A648",
"{. c #419C45",
"}. c #6D5E34",
"|. c #76513D",
" X c #4B4C30",
".X c #575C32",
"XX c #65A74B",
"oX c #69C454",
"OX c #5B8B42",
"+X c #516437",
"@X c #576837",
"#X c #579243",
"$X c #5AAD4A",
"%X c #5C6A37",
"&X c #4A5032",
"*X c #66513A",
"=X c #626035",
"-X c #7B6336",
";X c #9A5C33",
":X c #8E5C34",
">X c #9A5633",
",X c #95542F",
"<X c #8C6536",
"1X c #8C4D34",
"2X c #81462E",
"3X c #6C3C2A",
"4X c #B3733B",
"5X c #EB9E48",
"6X c #E09545",
"7X c #E79C47",
"8X c #DD9645",
"9X c #BD7D3C",
"0X c #F6AC49",
"qX c #FAB54C",
"wX c #CA8F40",
"eX c #73422A",
"rX c #764831",
"tX c #965333",
"yX c #B17F3A",
"uX c #ECC14C",
"iX c #B8883D",
"pX c #683729",
"aX c #824C33",
"sX c #D06F3B",
"dX c #AD573B",
"fX c #DB753C",
"gX c #D4763E",
"hX c #DB8A48",
"jX c #DC8A47",
"kX c #E3773D",
"lX c #A15A36",
"zX c #8A5F4C",
"xX c #C08E63",
"cX c #B87651",
"vX c #745142",
"bX c #724F40",
"nX c #B77550",
"mX c #A74D32",
"MX c #A74E33",
"NX c #A74D33",
"BX c #B1593D",
"VX c #AF563B",
"CX c #AF573C",
"ZX c #B25C3F",
"AX c #9C3B24",
"SX c #AB5035",
"DX c #AE563B",
"FX c #AE553A",
"GX c #9A3B23",
"HX c #9C3D25",
"JX c #B36042",
"KX c #9B3B24",
"LX c #AC5439",
"PX c #9C3C25",
"IX c #AC5539",
/* pixels */
"  .   X o O + @ # $ % & * = - ; : > - , % < % % @ 1 :   -     > ",
"  - ; ; o ; 2 3 @ $ $ @ 4 5 -     > - 6 7 $ 8 9 0 q   -   - > ; ",
"  -     > ; 2 @ 9 # # 3 w e o -   > - r % 9 @ @ 3 1 - . o o     ",
"- -   -     1 3 $ 9 # % * t > o - : - y 9 $ 9 % @ 1   u   - -   ",
">     ; >   i p @ 0 9 @ a - s > o d o 2 0 9 @ @ f i   -         ",
"5 5 5 5 t g h % j j k j l z x e 5 5 t c v b n b m M N e N N e N ",
"w B V C Z A S D F G H J K L L L L P L I U G J Y T S R R R V R C ",
"@ E < W Q ! ~ ^ / / ( ) _ ` ' ] ` [ { } |  ...X.o.O.< +.W +.9 7 ",
"+.+.! ! < +.@.#.$.%.&.*.=.-.;.:.>.,.<.=.1.| | 2.3.4.i i ! < ! ! ",
"# < +.+.W 1 @.#.5.1.6.7.8.9.0.q.w.w.w.e.r.:.q.t.3.y.u.! u.u.i i.",
"9 W # i.< i.p.a.1.>.w.s.0.d.d.f.e.9.w.g.h.w.f.q.t.y.< ! < ! ! < ",
"0 @ 7 7 9 # j.w.9.q.q.f.d.q.q.f.k.8.d.f.d.q.9.f.>.) 9 $ W l.< Q ",
"a , , z.a , x.1.k.c.d.q.q.q.q.q.q.q.q.q.d.v.k.q.q.a.Z b.n.Z B , ",
". u u 5 . O m.M.N.B.q.q.q.q.q.q.q.q.q.q.q.q.9.q.V.a.= = = = u 5 ",
"> > s - > : C.Z.A.V.S.S.S.S.S.S.S.S.S.S.S.S.S.D.F.G.: - - - -   ",
"> > :   > H.J.K.L.P.I.I.F.F.U.U.U.U.I.F.F.I.U.I.Y.T.R.  - : ;   ",
"-       - E.W.Q.K.!.~.^./.(.)._._.`.'.^.^.]._.Y.[.{.}.G.  - >   ",
">       - |. X.XXXoXOX+X@X^.OXQ.Q.#X].@X+X].Q.$X%X&X*X- > >   - ",
". u t O . O x.Z.=X^.-X;X;X;X:X%X^.L.>X,X;X<X/.%Xx.x.- = 5 u 5 5 ",
"a y a a a , P 1X2X3X4X5X6X7X8Xx.3X9X0XqXqXwXC.eX1XrXz.Z n.z.n.Z ",
"0 7 Q @ 0 9 m.( 1XtX1X1X1X1X1XtXtX3XyXuXiXpXtXa.3Xx.u.+.9 E 9 W ",
"% 9 < 9 @ aXsXx.3XeXeXeXeXeXeXeXeXeXeXeXP P eXeXC.A.>XdXW < ! ! ",
"@ 9 $ 9 8 aXfXgX1.hXjXjXjXjXjXjXjXjXjXhXhXjXjXjXgXkX>X! < < W < ",
"$ < 9 < % < a.fXV.V.V.V.V.V.V.V.V.V.V.V.V.V.V.V.V.lXzXdX! ! < ! ",
"0 7 @ 7 % $ xXtXtXtXtXtXtXtXtXtXtXtXtXtXtXtXtXtX>XzXdXl.! < W ! ",
"l C C C B C cXG vXvXvXvXvXvXvXvXvXvXvXvXvXvXvXbX2.nXmXMXV NXV R ",
"5 = 5 5 = e 6 BXVXVXCXZXl z = = AX= N SXCX2 DXFXk n.N GX= 5 = 5 ",
"HX- HX: > HX1 f @ 7 7 JXM KXHX- HXHXHXLX@ $ $ W @ M : HXs s : - ",
"- HXHX- > - q 3 9 % 9 f M = HX- - - - r 8 # m # m M - - : - - - ",
"- PX- - - - q 8 W 7 9 3 a = - PX- HX5 IX@ # % # 9 a - HX> : HX- ",
"- - HXPXHX- IX9 W W # 7 n.x = PX> - KXa @ # % < W IX- HXHX- - - ",
"- - - = s - q @ < $ # 7 n.x PX-   s - y @ < < < $ M : : - : - PX"
};
