/* XPM */
static char *_ca549d7143e461dddd9a98f3eafab16UXtXZmqkUWcDQJwS[] = {
/* columns rows colors chars-per-pixel */
"32 32 128 2 ",
"   c #5D3827",
".  c #5E3928",
"X  c #653726",
"o  c #673826",
"O  c #693926",
"+  c #653729",
"@  c #663B2A",
"#  c #6A3C2A",
"$  c #793926",
"%  c #773C2D",
"&  c #7D3F2E",
"*  c #4F4427",
"=  c #4D4728",
"-  c #474F2A",
";  c #484F2A",
":  c #55462C",
">  c #55492B",
",  c #594A2B",
"<  c #445129",
"1  c #455A29",
"2  c #4B5B2B",
"3  c #52572B",
"4  c #515F2C",
"5  c #66422F",
"6  c #6C412D",
"7  c #6A4A2E",
"8  c #744127",
"9  c #784527",
"0  c #73422A",
"q  c #7C432D",
"w  c #7D4829",
"e  c #674430",
"r  c #694531",
"t  c #6D4A35",
"y  c #774430",
"u  c #7B4530",
"i  c #734C35",
"p  c #794C37",
"a  c #734F38",
"s  c #745239",
"d  c #7A533A",
"f  c #4E602A",
"g  c #55622C",
"h  c #833726",
"j  c #853925",
"k  c #9D3D25",
"l  c #A03F26",
"z  c #82452F",
"x  c #8C452F",
"c  c #854B2B",
"v  c #8B4E2C",
"b  c #8E512C",
"n  c #935127",
"m  c #92532A",
"M  c #9D5728",
"N  c #9E5829",
"B  c #8B4531",
"V  c #864933",
"C  c #8A4A34",
"Z  c #824E38",
"A  c #924F35",
"S  c #955137",
"D  c #935A32",
"F  c #A35E2F",
"G  c #A74D33",
"H  c #A94F34",
"J  c #AA5236",
"K  c #A6553B",
"L  c #AD5539",
"P  c #AF593D",
"I  c #B0573C",
"U  c #B05B3E",
"Y  c #A4602F",
"T  c #AC6430",
"R  c #815D41",
"E  c #B15D40",
"W  c #8B6446",
"Q  c #B77650",
"!  c #B87651",
"~  c #BA7B54",
"^  c #44832D",
"/  c #458B2D",
"(  c #538D2B",
")  c #4D902C",
"_  c #56902A",
"`  c #5C952D",
"'  c #5D9A2C",
"]  c #4B8933",
"[  c #619F2B",
"{  c #619C2B",
"}  c #65982B",
"|  c #5BA02A",
" . c #6BA229",
".. c #6BA329",
"X. c #6AA22A",
"o. c #6AA42C",
"O. c #73A428",
"+. c #71A62A",
"@. c #76A628",
"#. c #70A82A",
"$. c #7EA829",
"%. c #85B029",
"&. c #86B12A",
"*. c #8BB429",
"=. c #8FB729",
"-. c #8EBA28",
";. c #92B727",
":. c #96BA27",
">. c #9BBE26",
",. c #BC835B",
"<. c #BD845B",
"1. c #BD855B",
"2. c #BD875D",
"3. c #BE875D",
"4. c #BD875E",
"5. c #BD855C",
"6. c #BE885E",
"7. c #BE895F",
"8. c #BF8B60",
"9. c #BF8C60",
"0. c #BE8D60",
"q. c #BF8C61",
"w. c #BF8F62",
"e. c #BE8B61",
"r. c #C18F64",
"t. c #C08F63",
"y. c #C59C6C",
"u. c #C69E6F",
/* pixels */
"k k k l k k P U U U U E J k k k k k k J U P U U U L k k k k k k ",
"k k k k k k L E U U P P J k k k k k k L P P U U E L k k k k k k ",
"k k k k k k L U U U U E J k k k k k k L U U U U E L k k k k k k ",
"k k k k k k L U U S C C x j j j j j h B C V S U U L k k k k k k ",
"k k k k k k P E U u 7 , : , , , , , , : > 7 q U E P k k k k k k ",
"k k k k k k L U K q 3 ) O.( _ ^ ` ( ( @.[ 4 & K U L k k k k k k ",
"J J H H J J ~ ,.i # -  .>.( } &.` &.( :.[ 2 # i 1.~ H H H H H H ",
"U P P P U P 0.y.s + ;  .;.^ ( =.] *.^ $./ 2 + t y.r.P P P P U U ",
"P P P P P P 2.W D w < | -.'  .' o.#.^ O./ 1 q D W 0.P P P P P P ",
"U P P P P L 6.5 T v * f g g 4 2 g 4 g 4 f = c T @ 0.P P P P P P ",
"U P U P P P 2.t F m + # Z & q & & q % p # + b F r 0.P P P P P P ",
"E U U U U U 8.t F F w s 1.P U U U U U 2.R w F F r 0.U P P P P U ",
"L J J J L J ~ r F N 8 i ! J J J J J J Q d 8 N Y 5 ~ J J J J J J ",
"k k k k k k L # F N 8 6 J k k k k k k J q 8 N F + L k k k k k k ",
"k k k k k k P @ F N 8 6 J k k k k k k L y 8 N F + P k k k k k k ",
"k k k k k k U @ F N 8 6 J k k k k k k L y 8 N F @ P k k k k k k ",
"k k k k k k U @ F N 8 6 J k k k k k k L y 8 N F + L k k k k k k ",
"k k k k k k U @ F N 8 0 J k k k k k k L q 8 N F @ P k k k k k k ",
"k k k k k k L + F N 8 6 J k k k k k k J 0 8 N Y + L k k k k k k ",
"L J L L L J ~ 5 F N 8 i ! J L J L J J ~ d 8 N F 5 ~ J J J J J J ",
"E U U U E U t.r F N 8 a 2.U E U U U P 8.d 8 N F r t.P P U P U P ",
"U U P U U P 8.e F N 8 a 1.I U U U U L 2.d 8 N F r 0.P L P P P P ",
"U U U U E P 8.e F N 8 a 1.U U U U U P 6.d 8 N F r 0.L P P P P P ",
"U P U P U P 6.e F N 8 a ,.L U U U U P 2.d 8 N Y r 8.L L P P P P ",
"E U U U U U 0.r F N 8 a 2.P U U U U P 6.d 8 N F r 6.L P P P P P ",
"J H H H J H Q 5 v n 9 i Q H J J H J H ! p 9 n b 5 Q G G H G H H ",
"k k k k k k L + 0 0 6 . # X o o O O O #   6 0 0 + J k k k k k k ",
"k k k k k k L S V V V C z $ $ $ $ $ $ z V V V V A L k k k k k k ",
"k k k k k k L E U U U E L k k k k k k L E U U U U L k k k k k k ",
"k k k k k k L E P P P E L k k k k k k L U P U P P L k k k k k k ",
"k k k k k k L U P P U U J k k k k k k L U U U P P L k k k k k k ",
"k k k k k k L U P U U U J k k k k k k J U P P P U L k k k k k k "
};
