/* XPM */
static char *e70c6b71e3f641af9309419b5c96b6d7qA0loxeYyS4X4gDf[] = {
/* columns rows colors chars-per-pixel */
"32 32 145 2 ",
"   c #573626",
".  c #523A2F",
"X  c #5A3D2E",
"o  c #463E3D",
"O  c #593F33",
"+  c #633D29",
"@  c #5F4436",
"#  c #56433B",
"$  c #59463C",
"%  c #67412B",
"&  c #6B432C",
"*  c #6F482F",
"=  c #71462E",
"-  c #7F462A",
";  c #73482E",
":  c #7C4B2D",
">  c #6E4730",
",  c #6F4931",
"<  c #61493D",
"1  c #724A32",
"2  c #7A4D31",
"3  c #734F39",
"4  c #7E5236",
"5  c #75523C",
"6  c #4B4444",
"7  c #4D4748",
"8  c #4E4949",
"9  c #504747",
"0  c #5D4A42",
"q  c #534C4C",
"w  c #584F4D",
"e  c #57504F",
"r  c #5C5554",
"t  c #5B5759",
"y  c #685247",
"u  c #665149",
"i  c #745643",
"p  c #7A5B47",
"a  c #635855",
"s  c #635C5C",
"d  c #725E55",
"f  c #66605F",
"g  c #69605F",
"h  c #71625D",
"j  c #656163",
"k  c #6B6565",
"l  c #686668",
"z  c #6E6B6C",
"x  c #736967",
"c  c #7B6A61",
"v  c #726C6C",
"b  c #797373",
"n  c #777679",
"m  c #863F28",
"M  c #943E27",
"N  c #9D3D25",
"B  c #A03F26",
"V  c #874029",
"C  c #814B2D",
"Z  c #8D502D",
"A  c #90522E",
"S  c #844E33",
"D  c #904D34",
"F  c #835334",
"G  c #8A5634",
"H  c #8C5836",
"J  c #855739",
"K  c #86583A",
"L  c #8C5A3A",
"P  c #925632",
"I  c #935B35",
"U  c #95543A",
"Y  c #935E39",
"T  c #995F3E",
"R  c #A74D33",
"E  c #A84F34",
"W  c #A25337",
"Q  c #AA5236",
"!  c #A5563B",
"~  c #AD5539",
"^  c #A6593D",
"/  c #AE593D",
"(  c #B05B3E",
")  c #97613B",
"_  c #9A633B",
"`  c #9F693F",
"'  c #A1673C",
"]  c #A56B3F",
"[  c #A65C41",
"{  c #AA5D40",
"}  c #B15D40",
"|  c #8E6243",
" . c #9A6740",
".. c #9E6941",
"X. c #A36D43",
"o. c #A67146",
"O. c #A97347",
"+. c #A57149",
"@. c #AB764A",
"#. c #AA794D",
"$. c #AB7A4E",
"%. c #AC784A",
"&. c #B0784A",
"*. c #B17C4D",
"=. c #AB7B50",
"-. c #AD7C52",
";. c #B77550",
":. c #B37E56",
">. c #B47C55",
",. c #B67E57",
"<. c #B37B55",
"1. c #B97953",
"2. c #B97B54",
"3. c #BA7D56",
"4. c #BA7D56",
"5. c #B48058",
"6. c #B58058",
"7. c #BC835C",
"8. c #BD845C",
"9. c #BC855C",
"0. c #BD875D",
"q. c #BE875E",
"w. c #BD885D",
"e. c #BE8A5F",
"r. c #B88C5F",
"t. c #BC8A5F",
"y. c #B78C60",
"u. c #BF8B61",
"i. c #B88C60",
"p. c #BA8E61",
"a. c #B98E62",
"s. c #BF8D61",
"d. c #BF8C62",
"f. c #BF8E63",
"g. c #BB8C61",
"h. c #BA9163",
"j. c #BC9063",
"k. c #BC9064",
"l. c #BC9266",
"z. c #BA9163",
"x. c #BE9568",
"c. c #C08E62",
"v. c #C19064",
"b. c #C49B6C",
"n. c #C59D6F",
/* pixels */
"N N N B N N / ( ( ( ( } Q N N N N N N Q ( / ( ( ( ~ N N N N N N ",
"N N N N N N ~ } ( ( ( ( Q N N N N N N ~ ( ( } ( } ~ N N N N N N ",
"N N N N N N ~ ( ( ( ( } Q N N N N N N ~ ( ( ( ( } ~ N N N N N N ",
"N N N N N N ~ } ( ( ( / D V V V m V m D ^ ( ( ( ( ~ N N N N N N ",
"N N N N N N / } ( ^ ! U K F F F 4 4 4 J U ! ^ ( } / N N N N N N ",
"N N N N N N ~ ( ( S 2 J o.X.X.X.X.X.X.X.F 2 S ( ( ~ N N N N N N ",
"Q Q E E Q Q 1.7.>.+.@. .L L L H H H H F ) O.+.>.9.1.E E E E E E ",
"( / / / ( / s.b.l.$.o.F % % % % % % % + F X.$.x.n.v./ / / / ( ( ",
"/ / / / / / e.l.-.X.F % & 1 1 % % ; = % % F ..=.j.s./ / / / / / ",
"( / / / / ~ 9.y.o.L = = F Y Y 2 2 Y H : & % L X.r.u./ / / / / / ",
"( / ( / / / 9.p.@.1 1 L G ` ` G G ` _ F G % * o.p.u./ / / / / / ",
"} ( ( ( ( ( e.h.@.1 4 _ F ` ` G G _ _ F I ; & X.p.s.( ( / / / ( ",
"~ Q Q Q ~ Q 2.5.&.& 2 X.F ` ..G G _ _ F Y ; & X.:.3.Q Q Q Q Q Q ",
"N N N N N N ~ ^ p c d 5 H ` ..G G _ ) G 3 # $ i ^ ~ N N N N N N ",
"N N N N N N / [ q h x s 5 ` ] H H ' _ 1 a j t 7 [ / N N N N N N ",
"N N N N N N ( ^ u X d n r | i < < i L q z b g 0 [ / N N N N N N ",
"N N N N N N / { H y 9 a b q l v z j 7 k w o < H [ ~ N N N N N N ",
"N N N N N N ( { @.1 & 5 q q b v v v 6 7 O   1 o.{ / N N N N N N ",
"N N N N N N ~ / @.1 1 L @ q v q q k 6 . 2 & 1 O./ ~ N N N N N N ",
"~ Q ~ ~ ~ Q 2.5.*.1 2 _ 1 8 v r e j 6 + H ; 1 @.>.3.Q Q Q Q Q Q ",
"} ( ( ( } ( c.l.*.1 2 _ 4 0 f s r r # 2 I = 1 @.h.s./ / ( / ( / ",
"( ( / ( ( / u.p.*.1 2 _ F F # o o # : : I ; , @.p.u./ ~ / / / / ",
"( ( ( ( } / e.p.*.1 2 _ F Y F + + : G : I = , @.p.u.~ / / / / / ",
"( / ( / ( / 9.r.*.1 2 _ F ) Y : : G P : I = , @.p.u.~ ~ / / / / ",
"} ( ( ( ( ( s.h.*.1 2 ) S Y _ C : P G : I = * %.p.e.~ / / / / / ",
"Q E E E Q E ;.<.o., 2 _ F _ _ C C I P : I ; > X.<.;.R R E R E E ",
"N N N N N N Q ^ T = 2 I S P P C - A Z C P : = T ! Q N N N N N N ",
"N N N N N N ~ / ^ ^ ^ ^ W M M M M M M W ^ ! ! ! / ~ N N N N N N ",
"N N N N N N ~ } / ( / } ~ N N N N N N Q / / / / ( ~ N N N N N N ",
"N N N N N N ~ } / ( ( } ~ N N N N N N ~ ( ( ( ( ( ~ N N N N N N ",
"N N N N N N ~ ( / / ( ( Q N N N N N N ~ ( ( ( / / ~ N N N N N N ",
"N N N N N N ~ ( / ( ( ( Q N N N N N N Q ( / / / ( ~ N N N N N N "
};
