/* XPM */
static char *_b5fa86c7b5342c7d67e3bec0d559c43yZSxkzUZ5V222tKx[] = {
/* columns rows colors chars-per-pixel */
"32 32 193 2 ",
"   c #9B3A22",
".  c #9A3B23",
"X  c #9B3B23",
"o  c #9C3B23",
"O  c #9C3C23",
"+  c #9B3B24",
"@  c #9C3B24",
"#  c #9C3C24",
"$  c #9D3C24",
"%  c #9D3D24",
"&  c #9C3C25",
"*  c #9C3D25",
"=  c #9D3D25",
"-  c #9E3D24",
";  c #9E3D25",
":  c #9D3E25",
">  c #9F3E24",
",  c #9E3E25",
"<  c #9F3E25",
"1  c #9D3E26",
"2  c #9E3E26",
"3  c #9F3E26",
"4  c #9E3F26",
"5  c #9F3F26",
"6  c #A03F26",
"7  c #A74D32",
"8  c #A74D33",
"9  c #A74E33",
"0  c #A84D33",
"q  c #A84E33",
"w  c #A94E33",
"e  c #A84F34",
"r  c #A94F34",
"t  c #AA4F34",
"y  c #A95035",
"u  c #AA5034",
"i  c #AA5035",
"p  c #AB5035",
"a  c #AB5135",
"s  c #AA5136",
"d  c #AB5136",
"f  c #AA5236",
"g  c #AB5236",
"h  c #AA5237",
"j  c #AB5237",
"k  c #AB5337",
"l  c #AC5136",
"z  c #AC5237",
"x  c #AC5337",
"c  c #AB5338",
"v  c #AC5338",
"b  c #AC5438",
"n  c #AD5438",
"m  c #AC5439",
"M  c #AD5439",
"N  c #AC5539",
"B  c #AD5539",
"V  c #AE5539",
"C  c #AE553A",
"Z  c #AC563A",
"A  c #AD563A",
"S  c #AD573B",
"D  c #AE563A",
"F  c #AF563A",
"G  c #AE563B",
"H  c #AF563B",
"J  c #AE573B",
"K  c #AF573B",
"L  c #AF573C",
"P  c #AD583B",
"I  c #AE583B",
"U  c #AF583B",
"Y  c #AE583C",
"T  c #AF583C",
"R  c #AE593C",
"E  c #AF593C",
"W  c #AE593D",
"Q  c #AF593D",
"!  c #AF5A3D",
"~  c #AF5A3E",
"^  c #B0583C",
"/  c #B0583D",
"(  c #B0593D",
")  c #B1593D",
"_  c #B05A3D",
"`  c #B1593E",
"'  c #B05A3E",
"]  c #B15A3E",
"[  c #B05B3E",
"{  c #B15B3E",
"}  c #B05B3F",
"|  c #B15B3F",
" . c #B25A3E",
".. c #B25B3E",
"X. c #B25B3F",
"o. c #B05C3F",
"O. c #B15C3F",
"+. c #B25C3F",
"@. c #B15C40",
"#. c #B15D40",
"$. c #B25C40",
"%. c #B35C40",
"&. c #B25D40",
"*. c #B25D41",
"=. c #B25E40",
"-. c #B25E41",
";. c #B35E41",
":. c #B35F41",
">. c #B35F42",
",. c #B36042",
"<. c #B7744F",
"1. c #B77450",
"2. c #B77550",
"3. c #B87551",
"4. c #B87651",
"5. c #B87751",
"6. c #B97752",
"7. c #B97953",
"8. c #BA7C55",
"9. c #BB7D56",
"0. c #BB7E56",
"q. c #BB7E57",
"w. c #BB7F57",
"e. c #BB7F58",
"r. c #BC8058",
"t. c #BC8159",
"y. c #BC8259",
"u. c #BD825A",
"i. c #BD835A",
"p. c #BD835B",
"a. c #BD845B",
"s. c #BD855B",
"d. c #BE845B",
"f. c #BD845C",
"g. c #BD855C",
"h. c #BE845C",
"j. c #BE855C",
"k. c #BE855D",
"l. c #BD865C",
"z. c #BD875D",
"x. c #BE865C",
"c. c #BE865D",
"v. c #BE875D",
"b. c #BE875E",
"n. c #BE885E",
"m. c #BF885F",
"M. c #BF895F",
"N. c #BE8A5F",
"B. c #BF8960",
"V. c #BF8A60",
"C. c #BF8B60",
"Z. c #BF8B61",
"A. c #BF8C61",
"S. c #BF8D61",
"D. c #C08A60",
"F. c #C08C61",
"G. c #C08D62",
"H. c #C08E63",
"J. c #C08F63",
"K. c #C18F63",
"L. c #C19064",
"P. c #C29466",
"I. c #C29467",
"U. c #C39467",
"Y. c #C29567",
"T. c #C39567",
"R. c #C39568",
"E. c #C39668",
"W. c #C29768",
"Q. c #C39768",
"!. c #C39669",
"~. c #C39769",
"^. c #C49669",
"/. c #C49769",
"(. c #C4976A",
"). c #C39869",
"_. c #C3996A",
"`. c #C49869",
"'. c #C49969",
"]. c #C4986A",
"[. c #C4996A",
"{. c #C4996B",
"}. c #C49A6B",
"|. c #C49B6B",
" X c #C49A6C",
".X c #C59B6C",
"XX c #C49C6C",
"oX c #C59C6C",
"OX c #C59C6D",
"+X c #C59D6D",
"@X c #C69D6E",
"#X c #C59E6E",
"$X c #C69E6F",
/* pixels */
", , , 6 , , I O.| | | >.x , , , , , , i | ~ | | O.F , , , , , , ",
", , , , , , F >.O.| | O.i , , , , , , F | | >.| >.F , , , , , , ",
", , , , , , F O.| | | >.i O , , , , , v | | O.O.>.F , , , , , , ",
", , , , , , F >.| | | | x , , , , , , c | | | | O.F , , , , , , ",
", , , , , , I >.O.>.| O.F , , , , , , F >.| O.O.>.I , , , , , , ",
", , , , , , F | | | F | i     O , , , F | | | | | F o O o o O o ",
"i i q r i i 7.f.p.p.e.p.<.q i i i i i 2.f.p.p.f.f.7.r r r q r r ",
"O.~ ~ ~ O.~ S.oX).).).oXf.L >.>.>.>.| f.oX).[. XoXL.~ ~ ~ ~ | | ",
"~ I ~ ~ ~ ~ n.E.I.E.I.E.p.F | | | ~ ~ s.[.(.E.I.[.K.I F ~ ~ ~ ~ ",
"| ~ ~ ~ ~ F n.E.E.E.I.[.s.F | | ~ | ~ f.[.I.[.(.[.K.~ F ~ ~ I ~ ",
"| ~ | ~ ~ ~ f.[.I.I.I.).s.F ~ ~ ~ | | f.[.E.I.E.(.K.~ F ~ ~ ~ ~ ",
">.O.| | | | B.oX).E.E.oXs.L | | | | | f.oX[.[.E.[.K.| | ~ ~ ~ O.",
"F i i i F i 8.n.f.f.f.B.6.i i i i i i 6.n.f.f.f.f.8.i i i i i i ",
", O , O , , F | | | | | x , , , , , , x | | | | | F o , , , , , ",
", , , , , , ~ >.O.>.>.>.i , , , , , , F >.O.O.O.>.~ , , , , , , ",
", , , , , , | >.| | | >.i , , , , , , F >.| O.O.>.~ , , , , , , ",
", , , , , , | >.| | | >.i , , , , , , F >.| | | >.F , , , , , , ",
", , , , , , | >.O.| O.>.i , , , , , , F >.O.O.>.,.~ , , , , , , ",
", , , , , , F | | | | >.i , , , , , , x | | | | | F , , , , , , ",
"F c F F F i 8.n.f.f.f.n.6.x F x v i i 7.D.f.f.f.f.8.i i i i i i ",
">.| O.O.>.| K.oX).[.).oXf.| >.O.| O.~ B.oX[.[.[.oXK.~ ~ | ~ | ~ ",
"| | ~ | O.~ B.[.I.E.E.).s.| O.| | | F f.[.E.(.E.[.S.I F ~ ~ L ~ ",
"O.| | | >.~ B.).E.E.E. Xs.| | | | | | n.oX[.E.E.[.S.F ~ ~ ~ ~ ~ ",
"| ~ | ~ | ~ n.E.I.I.I.[.p.F | | | | ~ f.[.I.I.I.[.B.F F F ~ ~ ~ ",
">.| O.| | ~ S.[.).[.[.oXf.~ O.| | | | B.oX).[.[.[.n.F ~ ~ ~ ~ ~ ",
"i r r r i r 2.p.8.p.p.s.1.q i i r i r 6.p.8.p.p.p.2.9 9 9 9 9 r ",
", , , , & X F | F F L O.i   , & @ , o i L F F F F i o   & , , , ",
", , , , , & F >.O.| | ,.F + , , , , , F O.| | ~ O.F , , , , , , ",
", , & , , , F >.| | | >.F , & , , , , v >.| | | | F , , , , , , ",
", , , , , , F >.~ | | >.F , , , , , , b O.| | | | F , , , , , , ",
", , & + , , F | ~ ~ | | i   , , , , + b O.| | ~ ~ F , , & , , , ",
", , , & , , F O.~ | | | i   , , , , , c O.~ ~ ~ | F , , , , , & "
};
