/* XPM */
static char *_5294fc9c0c14fa2cbf6e3b91427da87M5GcdF3qvhO6XjBH[] = {
/* columns rows colors chars-per-pixel */
"32 32 161 2 ",
"   c #7F412F",
".  c #7F4430",
"X  c #8C3522",
"o  c #893A2D",
"O  c #963B24",
"+  c #9D3D25",
"@  c #8E3F31",
"#  c #A03F26",
"$  c #824633",
"%  c #844834",
"&  c #924431",
"*  c #9B4B34",
"=  c #974E3D",
"-  c #9D4F3D",
";  c #97583F",
":  c #A44E34",
">  c #A84F34",
",  c #A35137",
"<  c #AA5236",
"1  c #A4543B",
"2  c #AD553A",
"3  c #A7583C",
"4  c #AE593D",
"5  c #B05B3E",
"6  c #924740",
"7  c #984741",
"8  c #944840",
"9  c #9D4B44",
"0  c #9C4F49",
"q  c #9C5343",
"w  c #925E44",
"e  c #995B41",
"r  c #96554C",
"t  c #9D5E49",
"y  c #9F5E55",
"u  c #A04E42",
"i  c #A25E4D",
"p  c #B15D40",
"a  c #AB5A53",
"s  c #B15F59",
"d  c #9B6246",
"f  c #9D6449",
"g  c #9E694B",
"h  c #A1604D",
"j  c #B7744F",
"k  c #A66756",
"l  c #A76A55",
"z  c #A96F54",
"x  c #A46259",
"c  c #AB645B",
"v  c #A76958",
"b  c #AB685E",
"n  c #B4645B",
"m  c #B0695F",
"M  c #A77251",
"N  c #A97159",
"B  c #B87550",
"V  c #B37B55",
"C  c #BB7D56",
"Z  c #B37F59",
"A  c #AF6E64",
"S  c #B36D63",
"D  c #BA6C63",
"F  c #B17167",
"G  c #BA7066",
"H  c #B5736A",
"J  c #BB7369",
"K  c #B9796E",
"L  c #BD7C72",
"P  c #C26A63",
"I  c #CA6964",
"U  c #C9786E",
"Y  c #C27D73",
"T  c #CC7A71",
"R  c #D57B74",
"E  c #B7825B",
"W  c #BD825B",
"Q  c #BE8A5F",
"!  c #BF9667",
"~  c #BF9768",
"^  c #C08E63",
"/  c #C18176",
"(  c #CF8178",
")  c #CE8A7F",
"_  c #D08279",
"`  c #D1897E",
"'  c #E5847E",
"]  c #CD8D81",
"[  c #D18D81",
"{  c #DA8E84",
"}  c #CF9084",
"|  c #D49286",
" . c #DD9186",
".. c #D8968B",
"X. c #DC998D",
"o. c #E68C84",
"O. c #E88D86",
"+. c #EC9189",
"@. c #F2928B",
"#. c #E29E92",
"$. c #EE9C92",
"%. c #F29E94",
"&. c #E7A497",
"*. c #ECA397",
"=. c #E9AA9D",
"-. c #F0A196",
";. c #F1A398",
":. c #FAA399",
">. c #F4AB9E",
",. c #FAAC9F",
"<. c #F3ADA0",
"1. c #F4ADA0",
"2. c #F7ADA1",
"3. c #F4AEA1",
"4. c #F5AEA1",
"5. c #F6AEA1",
"6. c #F5AEA2",
"7. c #F6AFA2",
"8. c #F6AEA2",
"9. c #F5AEA2",
"0. c #F8ADA0",
"q. c #F7B0A3",
"w. c #F7B0A3",
"e. c #F8B1A4",
"r. c #F8B2A4",
"t. c #F9B3A5",
"y. c #FBB2A4",
"u. c #F8B3A6",
"i. c #FCB1A4",
"p. c #FEB2A6",
"a. c #F9B5A7",
"s. c #FAB4A7",
"d. c #FCB5A7",
"f. c #FCB6A7",
"g. c #F9B3A6",
"h. c #F9B5A8",
"j. c #FCB5A8",
"k. c #FFB5A8",
"l. c #FCB6A9",
"z. c #FEB7A9",
"x. c #FDB7AA",
"c. c #FEB7AA",
"v. c #FDB7A9",
"b. c #FBB9AB",
"n. c #FDB8AA",
"m. c #FFBAAD",
"M. c #FDBBAE",
"N. c #FEBBAE",
"B. c #FDBCAC",
"V. c #FEBDAF",
"C. c #FFBDAF",
"Z. c #FFBCAE",
"A. c #FDBEAF",
"S. c #FFBEAF",
"D. c #FFB9AC",
"F. c #FFBFB0",
"G. c #FEBEB1",
"H. c #FFC2B4",
"J. c #FDC9B9",
"K. c #FDC8B9",
"L. c #FEC9B9",
/* pixels */
"+ + + # + + 4 5 5 5 5 p < + + + + + + < 5 4 5 5 5 2 + + + + + + ",
"+ + + + + + 2 p 5 5 5 5 < + + + + + + 2 5 5 p 5 p 2 + + + + + + ",
"+ + + + + + 2 5 4 4 5 p < + + + + + + < 5 5 5 5 p 2 + + + + + + ",
"+ + + + + + 2 p 5 5 5 5 < + + + + + + < 5 5 5 5 5 2 + + + + + + ",
"+ + + + + + 4 4 * * , 5 2 + + + + + + 2 p , * * 4 4 + + + + + + ",
"+ + + + + + : q S S i 3 : X X X X X X : 2 i S S q : + + + + + + ",
"< < > > < : t ` A.m.T   i G b m m b G h . U m.A.` t * : > > > > ",
"5 4 4 4 5 & G m.>.R a b [ m.z.z.z.d.m.[ b a R >.A.D & 4 4 4 5 5 ",
"4 4 4 4 4 & G J.{ 0 ] A.e.3.3.3.3.3.3.e.A.} 0  .J.D & 4 4 4 4 4 ",
"5 4 4 4 4 * k ) A ] m.>.3.q.3.3.3.3.q.3.>.m.] A ) k * 2 4 4 4 4 ",
"5 4 5 4 4 4 V $ b F.>.z.z.3.e.h.s.e.3.d.d.>.A.x % Z 4 4 4 4 4 4 ",
"p 5 5 5 5 4 V N | e.s.| ) b.;.o.o.*.b.[ | s.e.[ N Z 4 5 4 4 4 5 ",
"2 < < < 2 < ; J A.<.A.b x z.O.+.+.O.i.b x A.<.A.G e < < < < < < ",
"+ + + + + + & S i.-.0.X.F ( ( | | ( _ F ..3.-.e.S & + + + + + + ",
"+ + + + + + & S ,.+.%.H.S b / y y L S A H.$.+.,.S & + + + + + + ",
"+ + + + + + & J z.-.>.e.X.A c R R c F X.e.>.-.n.G & + + + + + + ",
"+ + + + + + , q  .m.3.3.n.#.c 9 9 c #.n.3.3.m.{ q , + + + + + + ",
"+ + + + + + 5 3 = [ n.3.3.n.#.K K #.n.3.3.z.[ = 4 4 + + + + + + ",
"+ + + + + + 2 1 u I $.w.q.3.e.m.m.e.3.q.w.$.I 9 1 2 + + + + + + ",
"2 < 2 2 2 < C d D :.;.w.q.w.3.3.3.3.q.q.w.-.:.n d C < < < < < < ",
"p 5 5 5 p 5 M b =.] L z.3.q.q.q.q.q.q.3.z.Y ] =.v M 4 4 5 4 5 4 ",
"5 5 4 5 5 4 d G J.H y m.3.q.q.q.q.q.q.3.m.x F J.S f 4 2 4 4 4 4 ",
"5 5 5 5 p 4 f a @.s x m.3.q.q.q.q.q.q.3.m.x a @.a g 2 4 4 4 4 4 ",
"5 4 5 4 5 4 E l 7 b &.w.q.q.q.3.3.3.q.3.w.&.b 7 z E 2 2 4 4 4 4 ",
"p 5 5 5 5 4 ^ ! w J F.3.q.q.e.e.e.e.q.q.3.F.J w ~ Q 2 4 4 4 4 4 ",
"< > > > < > B W V t Y z.w.%.P r r D %.w.z.Y f C W j > > > > > > ",
"+ + + + + + 2 5 2 & a ' ' P o X X o P ' ' a & 2 2 < + + + + + + ",
"+ + + + + + 2 p 5 4 - 6 8 @ O + + O & 8 6 - 4 4 5 2 + + + + + + ",
"+ + + + + + 2 p 4 5 4 3 , O + + + + + : 3 2 5 4 5 2 + + + + + + ",
"+ + + + + + 2 p 4 4 5 p 2 + + + + + + 2 5 5 5 5 5 2 + + + + + + ",
"+ + + + + + 2 5 4 4 4 5 < + + + + + O < 5 4 5 4 4 2 + + + + + + ",
"+ + + + + + 2 5 4 5 5 5 < + + + + + + < 5 4 4 4 5 2 + + + + + + "
};
