/* XPM */
static char *_5ac20d0273144a3d8227bb86133bebbxlNajYruOcspzB7Z[] = {
/* columns rows colors chars-per-pixel */
"32 32 120 2 ",
"   c #E4B76B",
".  c #E4B76C",
"X  c #E4B86C",
"o  c #E5B86C",
"O  c #E4B86D",
"+  c #E5B86D",
"@  c #E5B96D",
"#  c #E5B86E",
"$  c #E5B96E",
"%  c #E5B96F",
"&  c #E6B96E",
"*  c #E6B96F",
"=  c #E5BA6F",
"-  c #E6BA6E",
";  c #E6BA6F",
":  c #E6BA70",
">  c #E6BB70",
",  c #E7BB70",
"<  c #E6BB71",
"1  c #E7BB71",
"2  c #E7BC72",
"3  c #E7BC73",
"4  c #E7BD73",
"5  c #E7BD74",
"6  c #E8BE74",
"7  c #E8BE75",
"8  c #E8BF76",
"9  c #E9BF77",
"0  c #E8C078",
"q  c #E9C078",
"w  c #E9C079",
"e  c #E9C179",
"r  c #E9C17A",
"t  c #EAC17A",
"y  c #E9C27B",
"u  c #EAC27B",
"i  c #EAC27C",
"p  c #EAC37C",
"a  c #EAC37D",
"s  c #EBC47E",
"d  c #EBC47F",
"f  c #EBC57F",
"g  c #EBC580",
"h  c #ECC580",
"j  c #ECC681",
"k  c #ECC682",
"l  c #ECC783",
"z  c #EEC883",
"x  c #EEC983",
"c  c #ECC885",
"v  c #EDC885",
"b  c #EDC985",
"n  c #EFC984",
"m  c #EFCA84",
"M  c #EFCA85",
"N  c #EDC987",
"B  c #EFCA86",
"V  c #EFCB86",
"C  c #EFCB87",
"Z  c #EDC988",
"A  c #EDCA88",
"S  c #EDCA89",
"D  c #EECA88",
"F  c #EFCB88",
"G  c #EECA89",
"H  c #EECB89",
"J  c #EFCB89",
"K  c #EECB8A",
"L  c #EFCC88",
"P  c #EFCC89",
"I  c #EECC8A",
"U  c #EFCC8A",
"Y  c #EECC8B",
"T  c #EECC8C",
"R  c #EFCD8C",
"E  c #EFCD8D",
"W  c #EFCE8E",
"Q  c #EFCE8F",
"!  c #F0CC88",
"~  c #F0CC89",
"^  c #F0CC8A",
"/  c #F0CD8A",
"(  c #F0CD8B",
")  c #F0CD8C",
"_  c #F0CE8C",
"`  c #F0CE8D",
"'  c #F1CE8D",
"]  c #F0CE8E",
"[  c #F1CE8E",
"{  c #F0CF8E",
"}  c #F1CF8E",
"|  c #F0CE8F",
" . c #F0CF8F",
".. c #F1CF8F",
"X. c #F1D08F",
"o. c #F0CF90",
"O. c #F1D090",
"+. c #F0D091",
"@. c #F1D091",
"#. c #F0D092",
"$. c #F1D092",
"%. c #F1D192",
"&. c #F1D193",
"*. c #F2D193",
"=. c #F1D293",
"-. c #F1D194",
";. c #F1D294",
":. c #F1D295",
">. c #F1D395",
",. c #F2D294",
"<. c #F2D295",
"1. c #F2D395",
"2. c #F1D296",
"3. c #F1D396",
"4. c #F2D296",
"5. c #F2D396",
"6. c #F2D397",
"7. c #F2D497",
"8. c #F2D498",
"9. c #F2D499",
/* pixels */
"x F ] ] ] ] ] ] ] ^ ] ] ] ] ] ^ ] ] ] ] ] ] ] ] ^ ] ] ^ ] F c F ",
"P ] &.6.6.6.6.6.6.X.6.6.6.6.6.6.6.6.&.&.6.6.6.6.6.6.6.&.6.6.6.^ ",
"^ &.&.6.6.6.6.6.&.] &.6.&.&.6.6.6.6.&.&.&.&.&.&.6.6.&.6.6.] &.^ ",
"F 6.6.6.6.i P 8.6.&.&.6.&.6.8.c s 7.6.&.&.6.&.&.8.F i 6.6.&.&.^ ",
"P 6.6.&.u   3 P 6.&.6.6.&.6.c : - j 6.6.6.6.6.6.F : . i &.6.6.F ",
"^ 6.6.&.u - 3 F 6.6.&.&.&.6.j - - s 6.6.6.6.6.6.c : - u &.6.6.c ",
"^ 6.&.6.6.u F 8.&.&.&.&.6.6.8.j s 7.6.&.&.6.6.6.8.c u 6.6.&.6.P ",
"^ 6.6.6.6.&.6.6.6.6.6.6.6.6.6.6.&.6.6.&.6.&.&.6.6.6.6.6.&.&.6.^ ",
"^ 6.&.&.6.&.6.6.&.6.6.6.6.6.6.6.6.6.6.6.6.6.6.&.6.6.&.&.&.6.6.c ",
"^ 6.] ] 6.] &.&.6.6.g o.6.6.6.6.&.6.6.7.] s 6.6.&.&.6.6.&.&.6.^ ",
"^ 6.6.&.&.&.&.6.&.i - u &.6.&.&.&.6.6.] 6 o s &.&.&.6.6.&.] 6.^ ",
"^ 6.&.6.&.6.&.6.W 3 - - c 6.&.&.6.&.6.c - - 3 ] 6.&.6.6.6.6.&.] ",
"P &.&.6.6.&.6.6.7.W 6 F 7.&.&.&.&.6.&.6.F 6 o.6.&.&.&.6.6.6.6.^ ",
"^ 6.&.6.6.6.&.6.6.6.&.6.6.&.6.6.&.&.6.6.6.o.6.&.6.&.&.&.6.6.6.^ ",
"P &.6.&.&.6.6.6.&.6.6.6.6.&.&.6.6.&.6.6.6.&.6.6.&.6.6.&.&.6.6.P ",
"^ &.&.6.8.F &.6.&.] &.6.6.&.6.W W 8.6.&.&.&.6.6.6.o.F 8.6.&.&.P ",
"P 6.6.6.c - u &.&.] &.&.&.&.W 5 : W 6.6.&.&.&.6.&.u - F 6.&.&.P ",
"^ 6.6.] : - - j 6.6.&.&.&.6.u - - u 6.&.&.6.&.6.f - - 6 &.6.6.F ",
"^ 6.6.6.W 3 s 6.6.&.6.6.&.6.6.u 6 &.6.&.&.&.&.6.6.i 3 W 6.6.6.c ",
"P 6.6.6.8.W &.6.6.&.6.6.6.6.6.o.] 6.6.&.6.&.&.&.6.&.W 6.&.6.6.F ",
"^ &.&.&.&.6.6.6.&.&.6.6.6.6.6.6.6.&.&.6.&.6.&.6.6.6.&.&.6.6.6.P ",
"^ &.X.6.6.6.6.6.&.6.W 6.6.6.6.&.6.&.&.6.&.W 6.6.6.6.&.&.X.6.&.c ",
"P 6.6.&.6.6.&.&.6.P - c 6.6.&.&.&.6.6.6.c : P 6.&.&.6.&.&.6.&.c ",
"^ &.&.&.6.6.6.6.W : - - F 6.&.&.&.&.6.F - - : W 6.6.&.6.6.&.6.P ",
"^ 6.6.&.] 6.6.&.&.j - i &.6.&.&.6.&.6.&.i - j 6.&.&.&.&.6.] ] ^ ",
"^ &.6.&.&.6.&.6.&.6.c &.6.&.&.&.6.&.6.6.&.j 6.6.&.&.&.&.6.6.&.P ",
"^ 6.&.&.6.6.6.6.6.6.6.6.6.&.6.6.&.&.6.&.6.6.6.6.&.6.&.6.&.6.6.^ ",
"^ 6.] &.6.&.6.&.6.6.&.&.6.6.6.] ] 6.&.&.&.&.&.6.6.&.6.6.] 6.6.P ",
"^ 6.&.6.6.&.&.&.&.&.&.6.6.6.&.&.&.&.6.&.&.6.6.6.6.&.&.&.6.&.6.^ ",
"^ &.&.6.6.&.&.&.&.6.6.6.6.&.&.6.6.6.6.&.&.&.6.6.6.6.&.6.6.&.&.] ",
"c P &.&.&.6.&.&.6.&.&.&.&.&.&.&.6.&.&.6.&.&.6.&.&.&.&.6.6.&.P c ",
"x c c c P c c P c c L c c F c ^ c ^ ^ ^ c c ! c c c L c F c c x "
};
